<?xml version="1.0" ?>
<!-- Uploaded to: SVG Repo, www.svgrepo.com, Generator: SVG Repo Mixer Tools -->
<svg width="800px" height="800px" viewBox="0 0 300 300" id="frog" version="1.1" xml:space="preserve" xmlns="http://www.w3.org/2000/svg" xmlns:xlink="http://www.w3.org/1999/xlink">
<g>
<path d="   M104.831,255.386c-7.111-6.45-15.603-18.091-23.041-32.334C69.117,198.783,64.308,176.15,71.05,172.5   c6.741-3.65,22.48,13.066,35.153,37.335c7.718,14.781,12.519,28.954,13.571,38.602l9.873-4.591L156,272H80.958   c-6.547,0-7.003-2.256-1.101-5.001L104.831,255.386z" style="fill-rule:evenodd;clip-rule:evenodd;fill:#85D839;stroke:#000000;stroke-width:8;stroke-linecap:round;stroke-linejoin:round;stroke-miterlimit:10;"/>
<path d="   M203.169,255.386c7.111-6.45,15.604-18.091,23.041-32.334c12.673-24.269,17.481-46.902,10.74-50.552   c-6.742-3.65-22.48,13.066-35.153,37.335c-7.718,14.781-12.519,28.954-13.571,38.602l-9.873-4.591L152,272h75.042   c6.547,0,7.003-2.256,1.101-5.001L203.169,255.386z" style="fill-rule:evenodd;clip-rule:evenodd;fill:#85D839;stroke:#000000;stroke-width:8;stroke-linecap:round;stroke-linejoin:round;stroke-miterlimit:10;"/>
<path d="   M152,272c37.555,0,68-31.093,68-68.418S189.555,136,152,136s-68,30.258-68,67.582S114.445,272,152,272z" style="fill-rule:evenodd;clip-rule:evenodd;fill:#7EC632;stroke:#000000;stroke-width:8;stroke-linecap:round;stroke-linejoin:round;stroke-miterlimit:10;"/>
<path d="   M228,64c0-15.464-12.536-28-28-28c-9.619,0-18.101,4.854-23.142,12.243C169.059,45.541,160.719,44,152,44   s-17.059,1.541-24.858,4.243C122.101,40.854,113.619,36,104,36c-15.464,0-28,12.536-28,28c0,8.056,3.422,15.297,8.869,20.406   C79.225,95.028,76,107.133,76,120c0,41.974,34.026,76,76,76s76-34.026,76-76c0-12.867-3.224-24.972-8.868-35.594   C224.578,79.297,228,72.056,228,64z" style="fill-rule:evenodd;clip-rule:evenodd;fill:#85D839;stroke:#000000;stroke-width:8;stroke-linecap:round;stroke-linejoin:round;stroke-miterlimit:10;"/>
<ellipse cx="104" cy="68" rx="16" ry="20" style="fill-rule:evenodd;clip-rule:evenodd;fill:#FFFFFF;stroke:#000000;stroke-width:8;stroke-linecap:round;stroke-linejoin:round;stroke-miterlimit:10;"/>
<circle cx="104" cy="60" r="4" style="fill-rule:evenodd;clip-rule:evenodd;fill:#26BBEC;stroke:#000000;stroke-width:8;stroke-linecap:round;stroke-linejoin:round;stroke-miterlimit:10;"/>
<ellipse cx="200" cy="68" rx="16" ry="20" style="fill-rule:evenodd;clip-rule:evenodd;fill:#FFFFFF;stroke:#000000;stroke-width:8;stroke-linecap:round;stroke-linejoin:round;stroke-miterlimit:10;"/>
<circle cx="200" cy="60" r="4" style="fill-rule:evenodd;clip-rule:evenodd;fill:#26BBEC;stroke:#000000;stroke-width:8;stroke-linecap:round;stroke-linejoin:round;stroke-miterlimit:10;"/>
<path d="   M100,148c0,0,26,8,52,8c26,0,52-8,52-8" style="fill:none;stroke:#000000;stroke-width:8;stroke-linecap:round;stroke-linejoin:round;stroke-miterlimit:10;"/>
</g>
<g/>
<g/>
<g/>
<g/>
<g/>
<g/>
<g/>
<g/>
<g/>
<g/>
<g/>
<g/>
<g/>
<g/>
<g/>
</svg>